<?xml version="1.0" encoding="utf-8"?>
<!-- Generator: Adobe Illustrator 18.0.0, SVG Export Plug-In . SVG Version: 6.00 Build 0)  -->
<!DOCTYPE svg PUBLIC "-//W3C//DTD SVG 1.1//EN" "http://www.w3.org/Graphics/SVG/1.1/DTD/svg11.dtd">
<svg version="1.1" id="Layer_1" xmlns="http://www.w3.org/2000/svg" xmlns:xlink="http://www.w3.org/1999/xlink" x="0px" y="0px"
	 viewBox="0 0 88.3 77.5" enable-background="new 0 0 88.3 77.5" xml:space="preserve">
<g>
	<path fill-rule="evenodd" clip-rule="evenodd" fill="#DF1F26" d="M44,13.9c9-21.1,45.5-8.4,38.6,21.2C80,46.3,59.2,56.5,44,75.6
		l0,0C28.7,56.5,8,46.3,5.4,35.1C-1.5,5.5,35-7.2,44,13.9z"/>
	<path fill-rule="evenodd" clip-rule="evenodd" fill="#B21F24" d="M44,13.9c9-21.1,45.5-8.4,38.6,21.2C80,46.3,59.2,56.5,44,75.6
		V13.9z"/>
	<path fill-rule="evenodd" clip-rule="evenodd" fill="#FFFFFF" d="M1.9,34.9L23,35c6.4-0.3,8,3.6,11,10.5c0.5,1.2,0.8,2.1,1.5,3.5
		c0.1-3,0.4-8.5,0.6-14.7c0.2-6.7,0.4-14.6,0.9-18.4c0.2-1.8,0.6-2,1-2c0,0,1-0.3,1.3,1.2c0.4,2.3,1,6.2,1.7,10.6
		c0.7,4.3,1.5,9.2,2.3,13.8c0-0.2,0.1-0.4,0.1-0.6c0.1-0.6,0.2-1,0.3-1.5c0.1-0.5,0.3-1,0.5-1.3c0.3-0.4,0.8-0.6,1.4-0.6l1.1,0
		c0.3,0,0.4,0,0.6,0c0.5,0,0.4,0,0.6-0.9c0.3-1.5,0.6-3.7,0.9-5.8c0.7-3.8,0.8-6,1.4-7c0.5-0.9,1.7-0.9,2,0.4
		c0.3,1.2,0.4,3.5,0.6,5.6c0.2,3.1,0.5,6.8,0.7,10.5c0.2,3.4,0.5,6.8,0.7,9.5c0.3-2,0.6-4,0.7-6c0.2-3.5,0.3-5.3,4.5-5.4L86.1,36
		l0,1.9l-26.8,0.4c-2.5,0.1-2.5,1.3-2.7,3.6c-0.2,3.1-0.7,6.9-1.4,10c-0.1,0.7-0.3,1.2-0.4,1.5c-0.5,1.5-2,1.3-2.2,0
		c-0.2-1.3-0.7-8.1-1.2-15C51.2,34,50.8,28,50.7,28.2c0,0.3-0.1,0.6-0.1,0.9c-0.3,2.1-0.6,4.2-0.9,5.9c-0.5,2.5-0.5,2.5-2.6,2.5
		l-1.3,0c-0.3,0-0.4,0.1-0.4,0.3c-0.1,0.3-0.3,1.4-0.3,1.5c-0.4,1.8-0.7,3.7-1.3,4.7c-0.3,0.5-0.8,0.8-1.4,0.5
		c-0.3-0.2-0.5-0.5-0.6-1C40.9,38,39.9,31.5,39,26c-0.2-1.3-0.5-3.8-0.6-3.8c-0.2,0-0.4,11-0.5,12.2c-0.3,7.7-0.3,15.2-0.8,17.8
		c-0.1,0.7-0.4,1-0.9,1.1c-0.9,0.1-1.2-0.7-1.5-1.4c-1-2.1-1.8-4-2.5-5.7c-2.6-6.1-4.1-9.6-9.1-9.3L1.9,36.8L1.9,34.9z"/>
</g>
</svg>
